<?xml version="1.0" encoding="UTF-8" standalone="no"?>
<svg width="195px" height="195px" viewBox="0 0 195 195" version="1.1" xmlns="http://www.w3.org/2000/svg" xmlns:xlink="http://www.w3.org/1999/xlink" xmlns:sketch="http://www.bohemiancoding.com/sketch/ns">
    <!-- Generator: Sketch 3.4.3 (16618) - http://www.bohemiancoding.com/sketch -->
    <title>Oval 1 + happy</title>
    <desc>Created with Sketch.</desc>
    <defs></defs>
    <g id="Page-1" stroke="none" stroke-width="1" fill="none" fill-rule="evenodd" sketch:type="MSPage">
        <g id="01" sketch:type="MSArtboardGroup" transform="translate(-157.000000, -320.000000)">
            <g id="answer" sketch:type="MSLayerGroup" transform="translate(157.000000, 320.000000)">
                <g id="Oval-1-+-happy" sketch:type="MSShapeGroup">
                    <circle id="Oval-1" fill="#00C08E" cx="97.5" cy="97.5" r="97.5"></circle>
                    <path d="M96.5136719,163.958984 C92.0475037,163.958984 87.6839406,163.537439 83.4228516,162.694336 C79.1617625,161.851233 75.0374548,160.609383 71.0498047,158.96875 C67.0621545,157.328117 63.2568541,155.288749 59.6337891,152.850586 C56.0107241,150.412423 52.6269688,147.621109 49.4824219,144.476562 C46.3378749,141.377589 43.5579548,138.005227 41.1425781,134.359375 C38.7272015,130.713523 36.6878338,126.908223 35.0244141,122.943359 C33.3609943,118.978496 32.1077516,114.854188 31.2646484,110.570312 C30.4215453,106.286437 30,101.934267 30,97.5136719 C30,93.0475037 30.4215453,88.6839406 31.2646484,84.4228516 C32.1077516,80.1617625 33.3609943,76.0374548 35.0244141,72.0498047 C36.6878338,68.0621545 38.7272015,64.2568541 41.1425781,60.6337891 C43.5579548,57.0107241 46.3378749,53.6269688 49.4824219,50.4824219 C52.6269688,47.3378749 56.0107241,44.5579548 59.6337891,42.1425781 C63.2568541,39.7272015 67.0621545,37.6878338 71.0498047,36.0244141 C75.0374548,34.3609943 79.1617625,33.1077516 83.4228516,32.2646484 C87.6839406,31.4215453 92.0475037,31 96.5136719,31 C100.934267,31 105.286437,31.4215453 109.570312,32.2646484 C113.854188,33.1077516 117.989889,34.3609943 121.977539,36.0244141 C125.965189,37.6878338 129.77049,39.7272015 133.393555,42.1425781 C137.01662,44.5579548 140.400375,47.3378749 143.544922,50.4824219 C146.689469,53.6269688 149.469389,57.0107241 151.884766,60.6337891 C154.300142,64.2568541 156.328117,68.0621545 157.96875,72.0498047 C159.609383,76.0374548 160.862626,80.1617625 161.728516,84.4228516 C162.594405,88.6839406 163.027344,93.0475037 163.027344,97.5136719 C163.027344,101.934267 162.594405,106.286437 161.728516,110.570312 C160.862626,114.854188 159.609383,118.978496 157.96875,122.943359 C156.328117,126.908223 154.300142,130.713523 151.884766,134.359375 C149.469389,138.005227 146.689469,141.377589 143.544922,144.476562 C140.400375,147.621109 137.01662,150.412423 133.393555,152.850586 C129.77049,155.288749 125.965189,157.328117 121.977539,158.96875 C117.989889,160.609383 113.854188,161.851233 109.570312,162.694336 C105.286437,163.537439 100.934267,163.958984 96.5136719,163.958984 L96.5136719,163.958984 Z M137.802734,60.3945312 C139.169929,62.217457 140.206702,64.1998591 140.913086,66.3417969 C141.61947,68.4837347 141.972656,70.693999 141.972656,72.9726562 C141.972656,75.2968866 141.61947,77.5185441 140.913086,79.6376953 C140.206702,81.7568465 139.169929,83.7506417 137.802734,85.6191406 C137.483722,86.0292989 137.07357,86.3596993 136.572266,86.6103516 C136.070961,86.8610039 135.546878,86.9863281 135,86.9863281 L106.972656,86.9863281 C106.425779,86.9863281 105.913088,86.8610039 105.43457,86.6103516 C104.956052,86.3596993 104.534507,86.0292989 104.169922,85.6191406 C102.802728,83.7506417 101.765954,81.7568465 101.05957,79.6376953 C100.353187,77.5185441 100,75.2968866 100,72.9726562 L100,72.9726562 L93.0273438,72.9726562 L93.0273438,72.9726562 C93.0273438,75.2968866 92.6627641,77.5185441 91.9335938,79.6376953 C91.2044234,81.7568465 90.1562568,83.7506417 88.7890625,85.6191406 C88.4700505,86.0292989 88.0598983,86.3596993 87.5585938,86.6103516 C87.0572892,86.8610039 86.5332059,86.9863281 85.9863281,86.9863281 L58.0273438,86.9863281 C57.480466,86.9863281 56.9563827,86.8610039 56.4550781,86.6103516 C55.9537735,86.3596993 55.5436214,86.0292989 55.2246094,85.6191406 C53.857415,83.7506417 52.8092484,81.7568465 52.0800781,79.6376953 C51.3509078,77.5185441 50.9863281,75.2968866 50.9863281,72.9726562 C50.9863281,70.693999 51.3509078,68.4837347 52.0800781,66.3417969 C52.8092484,64.1998591 53.857415,62.217457 55.2246094,60.3945312 C55.5436214,59.9387998 55.9537735,59.5856132 56.4550781,59.3349609 C56.9563827,59.0843086 57.480466,58.9589844 58.0273438,58.9589844 L85.9863281,58.9589844 C86.5332059,58.9589844 87.0572892,59.0843086 87.5585938,59.3349609 C88.0598983,59.5856132 88.4700505,59.9387998 88.7890625,60.3945312 C89.4270865,61.260421 89.9967423,62.1604771 90.4980469,63.0947266 C90.9993515,64.028976 91.4322898,64.9973908 91.796875,66 L101.162109,66 C101.526695,64.9973908 101.959633,64.028976 102.460938,63.0947266 C102.962242,62.1604771 103.531898,61.260421 104.169922,60.3945312 C104.534507,59.9387998 104.956052,59.5856132 105.43457,59.3349609 C105.913088,59.0843086 106.425779,58.9589844 106.972656,58.9589844 L135,58.9589844 C135.546878,58.9589844 136.070961,59.0843086 136.572266,59.3349609 C137.07357,59.5856132 137.483722,59.9387998 137.802734,60.3945312 L137.802734,60.3945312 Z M96.5136719,142.972656 C93.7792832,142.972656 91.090508,142.733401 88.4472656,142.254883 C85.8040232,141.776365 83.2405723,141.081385 80.7568359,140.169922 C78.2730996,139.258459 75.8691522,138.119147 73.5449219,136.751953 C71.2206915,135.384759 69.0332134,133.835295 66.9824219,132.103516 C64.9316304,130.371736 63.0631595,128.480479 61.3769531,126.429687 C59.6907468,124.378896 58.1982487,122.202811 56.8994141,119.901367 C55.6005794,117.599923 54.5068404,115.207369 53.6181641,112.723633 C52.7294877,110.239896 52.0572939,107.676446 51.6015625,105.033203 C51.4648431,104.12174 51.6813123,103.267257 52.2509766,102.469727 C52.8206409,101.672197 53.5611934,101.205079 54.4726563,101.068359 C55.4296923,100.886067 56.3069622,101.07975 57.1044922,101.649414 C57.9020222,102.219078 58.3691399,102.982417 58.5058594,103.939453 C59.2806028,108.542341 60.8186734,112.814759 63.1201172,116.756836 C65.421561,120.698913 68.2584467,124.094061 71.6308594,126.942383 C75.0032721,129.790704 78.8085726,132.012362 83.046875,133.607422 C87.2851774,135.202482 91.7740648,136 96.5136719,136 C99.8860846,136 103.201481,135.555669 106.459961,134.666992 C109.718441,133.778316 112.805975,132.490894 115.722656,130.804687 C116.588546,130.348956 117.488602,130.246418 118.422852,130.49707 C119.357101,130.747723 120.052081,131.283199 120.507813,132.103516 C121.009117,132.969405 121.134441,133.858068 120.883789,134.769531 C120.633137,135.680994 120.09766,136.387367 119.277344,136.888672 C117.545564,137.891281 115.756845,138.768551 113.911133,139.520508 C112.06542,140.272465 110.185556,140.910479 108.271484,141.43457 C106.357412,141.958661 104.420583,142.346027 102.460938,142.59668 C100.501292,142.847332 98.5188902,142.972656 96.5136719,142.972656 L96.5136719,142.972656 Z" id="happy" fill="#FFFFFF"></path>
                </g>
            </g>
        </g>
    </g>
</svg>