<?xml version="1.0" encoding="utf-8"?>
<!-- Generator: Adobe Illustrator 19.1.0, SVG Export Plug-In . SVG Version: 6.00 Build 0)  -->
<!DOCTYPE svg PUBLIC "-//W3C//DTD SVG 1.1//EN" "http://www.w3.org/Graphics/SVG/1.1/DTD/svg11.dtd">
<svg version="1.1" id="Layer_1" xmlns="http://www.w3.org/2000/svg" xmlns:xlink="http://www.w3.org/1999/xlink" x="0px" y="0px"
	 width="300px" height="80px" viewBox="0 0 300 80" style="enable-background:new 0 0 300 80;" xml:space="preserve">
<style type="text/css">
	.st0{fill:#171717;}
	.st1{fill:#5E6065;}
	.st2{fill:#4E4D4D;}
	.st3{fill:#2F3032;}
	.st4{fill:#3C3D40;}
	.st5{fill:#262626;}
	.st6{fill:#73767C;}
	.st7{fill:#040505;}
	.st8{fill:#060808;}
	.st9{fill:#313235;}
</style>
<g>
	<path d="M118.4,43.9h7v8.3c-2.1,1-4.5,1.5-7.4,1.5c-6.8,0-12-5.3-12-12.3c0-7.1,4.9-12.3,11.6-12.3c3.5,0,6.3,1.1,8.5,3.3l0.3,0.2
		l3.5-3.8l-0.2-0.2c-2.8-2.9-6.6-4.2-12.1-4.2c-9.6,0-16.9,7.3-16.9,17c0,10,7.1,17,17.3,17c3.5,0,9-0.9,12.4-3l0.3-0.1V39h-12.4
		V43.9z M144.7,35.2c-6.5,0-11.6,5-11.6,11.5c0,6.4,5.1,11.5,11.6,11.5c6.5,0,11.6-5,11.6-11.5C156.3,40.2,151.2,35.2,144.7,35.2z
		 M144.7,53.7c-4,0-6.6-2.8-6.6-7c0-4.2,2.7-7,6.6-7s6.6,2.8,6.6,7C151.3,50.9,148.6,53.7,144.7,53.7z M169.5,35.2
		c-6.5,0-11.6,5-11.6,11.5c0,6.4,5.1,11.5,11.6,11.5c6.5,0,11.6-5,11.6-11.5C181.2,40.2,176,35.2,169.5,35.2z M169.5,53.7
		c-4,0-6.6-2.8-6.6-7c0-4.2,2.7-7,6.6-7c4,0,6.6,2.8,6.6,7C176.2,50.9,173.5,53.7,169.5,53.7z M201.1,38.2c-1.6-1.9-4.3-3-7.1-3
		c-6.5,0-11.1,4.7-11.1,11.5c0,6.8,4.6,11.5,11.1,11.5c2.8,0,5.5-1.2,7.1-3v2.7h4.3V24.5h-4.3V38.2z M194.5,53.7c-4,0-6.6-2.8-6.6-7
		c0-4.2,2.7-7,6.6-7c4,0,6.6,2.8,6.6,7C201.1,50.9,198.4,53.7,194.5,53.7z M220.5,25.1h-9.7v32.8h9c11.6,0,17.7-8.2,17.7-16.3
		C237.5,35.5,233.9,25.1,220.5,25.1z M215.6,29.9h4.5c11.7,0,12,10.5,12,11.7c0,8.5-7,11.4-13.1,11.4h-3.5V29.9z M258.1,53.4V42.6
		c0-3.6-2.5-7.4-9.3-7.4c-3.3,0-6.5,1.2-8.7,3.2l-0.3,0.2l2.9,3l0.5-0.4c1.4-1,2.9-2.1,5.7-2.1c3.2,0,4.9,2.1,4.9,4.1v0.7h-2.9
		c-7.8,0-12,2.7-12,7.6c0,3.9,3.2,6.7,7.7,6.7c3.2,0,5.5-1,7.2-3.2c0,0.8,0.1,1.7,0.1,2.4l0,0.4h4.3l0-0.5
		C258,56.3,258.1,55,258.1,53.4z M247.9,54.2c-2.8,0-4.3-1.2-4.3-3.3c0-3.1,4.3-3.9,8.1-3.9h2.1v1.3
		C253.8,51.2,252.1,54.2,247.9,54.2z M271.5,53.7c-2.5,0-2.7-1.7-2.7-4.5v-9.1h5.9v-4.3h-5.9v-5.9H264v5.9h-4.8v4.3h4.8v10.5
		c0,3.2,0.1,7.6,6.7,7.6c0.6,0,2.7-0.1,3.8-0.8l0.2-0.1v-4.5l-0.5,0.3C273.4,53.6,272.3,53.7,271.5,53.7z M295.6,53.4V42.6
		c0-3.6-2.3-7.4-9.1-7.4c-3.3,0-6.5,1.2-8.6,3.2l-0.2,0.2l2.9,3l0.5-0.4c1.4-1,2.8-2.1,5.5-2.1c3.2,0,4.7,2.1,4.7,4.1v0.7h-2.6
		c-7.8,0-12,2.7-12,7.6c0,3.9,3.2,6.7,7.7,6.7c3.2,0,5.5-1,7.2-3.2c0,0.8,0.1,1.7,0.1,2.4l0,0.4h4.3l-0.1-0.5
		C295.8,56.3,295.6,55,295.6,53.4z M285.6,54.2c-2.8,0-4.2-1.2-4.2-3.3c0-3.1,4.4-3.9,8.1-3.9h1.8v1.3
		C291.3,51.2,289.8,54.2,285.6,54.2z"/>
	<g>
		<path class="st0" d="M71.7,73.7V40.9c0-0.2,0-0.4,0-0.7H38.1c0,3.2,0.5,6.4,1.7,9.9h0l0.1,0.2l-0.2,0.1l0,0.1
			c-0.6,0.1-1.2,0.2-1.7,0.2l-0.1,0c-2.8,0-5.6-1.2-7.6-3.2c-2.2-2.2-3.2-4.6-3.2-7.6c0-2.8,1.2-5.6,3.2-7.7
			c2.1-2.1,4.8-3.2,7.6-3.2l0.3,0c2.7,0.1,5.3,1.2,7.3,3.1l16.3-16.3c-6-5.9-14.5-9.4-23.4-9.5l-0.5,0c-9.1,0-17.5,3.4-23.8,9.7
			L14,16l0,0c-6.3,6.4-9.8,14.8-9.8,23.8l0,0l0,0c0,9,3.5,17.5,9.9,23.9l0.1,0.1c6.4,6.4,14.9,10,23.8,10H38
			c5.6,0,11.4-1.6,16.8-4.7l0.1-0.1l0.1,0.1c0,0,0.1,0,0.1,0.1l0.1,0.1l0,0C60.2,72.1,65.9,73.7,71.7,73.7z"/>
		<g>
			<path class="st1" d="M48.6,40.1H37.9c0,3.6,0.7,6.9,1.7,10.2c2.2-0.4,4.5-1.4,6.1-3l0,0C47.6,45.4,48.6,43.3,48.6,40.1L48.6,40.1
				z"/>
			<g>
				<path class="st2" d="M71.9,40L71.9,40L71.9,40z"/>
			</g>
			<g>
				<path class="st1" d="M39.7,50.3c-0.5,0.1-1.1,0.2-1.6,0.2V74c5.9,0,11.8-1.8,16.9-4.7c-2.5-1.5-4.9-3.3-7-5.4
					C44.2,60.1,41.3,55.5,39.7,50.3"/>
			</g>
			<path class="st3" d="M71.9,40.1H48.5c0,3.2-1.2,5.3-3.1,7.3l0,0c-1.5,1.5-3.5,2.6-5.7,3c1.7,5.2,4.5,9.8,8.3,13.6
				c2.1,2.1,4.4,3.9,7,5.4c2.6-1.5,4.9-3.3,7-5.3l0,0.6C68.1,58.4,71.9,49.4,71.9,40.1z"/>
			<g>
				<path class="st4" d="M13.9,63.9C20,70.1,28.5,74,37.9,74H38v-0.1V50.4c0,0-0.1,0-0.1,0c-2.9,0-5.6-1.2-7.5-3.1L13.9,63.9z"/>
				<polyline class="st5" points="30.4,47.3 30.4,47.3 30.4,47.3 				"/>
			</g>
			<g>
				<path class="st6" d="M27.3,39.8H4c0,9.4,3.8,18,10,24.2L26.7,51l3.7-3.7C28.5,45.4,27.3,43,27.3,39.8"/>
			</g>
			<g>
				<line class="st7" x1="30.4" y1="47.3" x2="30.4" y2="47.3"/>
				<path class="st7" d="M30.4,47.3"/>
			</g>
			<g>
				<path class="st8" d="M4,39.8L4,39.8L4,39.8z"/>
			</g>
			<g>
				<path class="st9" d="M38.4,6h-0.5C28.6,6,20.1,9.6,14,15.8l16.4,16.5c0,0,0,0,0,0l0,0c1.9-1.9,4.6-3.2,7.5-3.2c0,0,0.4,0,0.4,0
					V6z"/>
			</g>
			<path class="st1" d="M30.4,32.2c-1.9,1.9-3.2,4.6-3.2,7.6v0H4c0-9.4,3.8-17.9,10-24.1l0.1,0.1l0,0L30.4,32.2z"/>
			<g>
				<g id="XMLID_1_">
					<g>
						<path class="st6" d="M62,15.7L45.5,32.2c-1.9-1.9-4.6-3.1-7.4-3.2V6C46.9,6,55.8,9.5,62,15.7z"/>
					</g>
					<g>
					</g>
				</g>
			</g>
			<path class="st8" d="M30.4,32.3"/>
			<path class="st1" d="M71.9,40.1c0,9.3-3.8,17.6-9.9,23.8l0,0c-2.1,2.1-4.5,3.9-7,5.4c5,2.9,10.8,4.6,17,4.6L71.9,40.1L71.9,40.1z
				"/>
		</g>
	</g>
</g>
</svg>
