<?xml version="1.0" encoding="UTF-8" standalone="no"?>
<svg width="195px" height="195px" viewBox="0 0 195 195" version="1.1" xmlns="http://www.w3.org/2000/svg" xmlns:xlink="http://www.w3.org/1999/xlink" xmlns:sketch="http://www.bohemiancoding.com/sketch/ns">
    <!-- Generator: Sketch 3.4.3 (16618) - http://www.bohemiancoding.com/sketch -->
    <title>Oval 1 + neutral</title>
    <desc>Created with Sketch.</desc>
    <defs></defs>
    <g id="Page-1" stroke="none" stroke-width="1" fill="none" fill-rule="evenodd" sketch:type="MSPage">
        <g id="01" sketch:type="MSArtboardGroup" transform="translate(-413.000000, -320.000000)">
            <g id="answer" sketch:type="MSLayerGroup" transform="translate(157.000000, 320.000000)">
                <g id="Oval-1-+-neutral" transform="translate(256.000000, 0.000000)" sketch:type="MSShapeGroup">
                    <circle id="Oval-1" fill="#FACD08" cx="97.5" cy="97.5" r="97.5"></circle>
                    <path d="M97.5136719,163.958984 C93.0475037,163.958984 88.6839406,163.537439 84.4228516,162.694336 C80.1617625,161.851233 76.0374548,160.609383 72.0498047,158.96875 C68.0621545,157.328117 64.2568541,155.288749 60.6337891,152.850586 C57.0107241,150.412423 53.6269688,147.621109 50.4824219,144.476562 C47.3378749,141.377589 44.5579548,138.005227 42.1425781,134.359375 C39.7272015,130.713523 37.6878338,126.908223 36.0244141,122.943359 C34.3609943,118.978496 33.1077516,114.854188 32.2646484,110.570312 C31.4215453,106.286437 31,101.934267 31,97.5136719 C31,93.0475037 31.4215453,88.6839406 32.2646484,84.4228516 C33.1077516,80.1617625 34.3609943,76.0374548 36.0244141,72.0498047 C37.6878338,68.0621545 39.7272015,64.2568541 42.1425781,60.6337891 C44.5579548,57.0107241 47.3378749,53.6269688 50.4824219,50.4824219 C53.6269688,47.3378749 57.0107241,44.5579548 60.6337891,42.1425781 C64.2568541,39.7272015 68.0621545,37.6878338 72.0498047,36.0244141 C76.0374548,34.3609943 80.1617625,33.1077516 84.4228516,32.2646484 C88.6839406,31.4215453 93.0475037,31 97.5136719,31 C101.934267,31 106.286437,31.4215453 110.570312,32.2646484 C114.854188,33.1077516 118.989889,34.3609943 122.977539,36.0244141 C126.965189,37.6878338 130.77049,39.7272015 134.393555,42.1425781 C138.01662,44.5579548 141.400375,47.3378749 144.544922,50.4824219 C147.689469,53.6269688 150.469389,57.0107241 152.884766,60.6337891 C155.300142,64.2568541 157.328117,68.0621545 158.96875,72.0498047 C160.609383,76.0374548 161.862626,80.1617625 162.728516,84.4228516 C163.594405,88.6839406 164.027344,93.0475037 164.027344,97.5136719 C164.027344,101.934267 163.594405,106.286437 162.728516,110.570312 C161.862626,114.854188 160.609383,118.978496 158.96875,122.943359 C157.328117,126.908223 155.300142,130.713523 152.884766,134.359375 C150.469389,138.005227 147.689469,141.377589 144.544922,144.476562 C141.400375,147.621109 138.01662,150.412423 134.393555,152.850586 C130.77049,155.288749 126.965189,157.328117 122.977539,158.96875 C118.989889,160.609383 114.854188,161.851233 110.570312,162.694336 C106.286437,163.537439 101.934267,163.958984 97.5136719,163.958984 L97.5136719,163.958984 Z M76.5273438,85.0136719 C73.6106625,85.0136719 71.1269634,83.9882915 69.0761719,81.9375 C67.0253804,79.8867085 66,77.4030094 66,74.4863281 C66,71.5696469 67.0253804,69.0859478 69.0761719,67.0351562 C71.1269634,64.9843647 73.6106625,63.9589844 76.5273438,63.9589844 C79.3984519,63.9589844 81.8593647,64.9843647 83.9101562,67.0351562 C85.9609478,69.0859478 86.9863281,71.5696469 86.9863281,74.4863281 C86.9863281,77.4030094 85.9609478,79.8867085 83.9101562,81.9375 C81.8593647,83.9882915 79.3984519,85.0136719 76.5273438,85.0136719 L76.5273438,85.0136719 Z M118.5,85.0136719 C115.583319,85.0136719 113.09962,83.9882915 111.048828,81.9375 C108.998037,79.8867085 107.972656,77.4030094 107.972656,74.4863281 C107.972656,71.5696469 108.998037,69.0859478 111.048828,67.0351562 C113.09962,64.9843647 115.583319,63.9589844 118.5,63.9589844 C121.416681,63.9589844 123.90038,64.9843647 125.951172,67.0351562 C128.001963,69.0859478 129.027344,71.5696469 129.027344,74.4863281 C129.027344,77.4030094 128.001963,79.8867085 125.951172,81.9375 C123.90038,83.9882915 121.416681,85.0136719 118.5,85.0136719 L118.5,85.0136719 Z M118.5,127.958984 C118.363281,127.958984 118.203777,127.947591 118.021484,127.924805 C117.839192,127.902018 117.679688,127.867839 117.542969,127.822266 L68.5292969,113.876953 C67.617834,113.603514 66.922854,113.045252 66.4443359,112.202148 C65.9658179,111.359045 65.8632799,110.458989 66.1367188,109.501953 C66.4101576,108.59049 66.9684203,107.89551 67.8115234,107.416992 C68.6546266,106.938474 69.5318965,106.835936 70.4433594,107.109375 L119.457031,121.123047 C120.368494,121.396486 121.063474,121.954748 121.541992,122.797852 C122.02051,123.640955 122.123048,124.518225 121.849609,125.429688 C121.621744,126.204431 121.200198,126.819659 120.584961,127.275391 C119.969723,127.731122 119.274743,127.958984 118.5,127.958984 L118.5,127.958984 Z" id="neutral" fill="#FFFFFF"></path>
                </g>
            </g>
        </g>
    </g>
</svg>