<?xml version="1.0" encoding="UTF-8" standalone="no"?>
<svg width="175px" height="70px" viewBox="0 0 175 70" version="1.1" xmlns="http://www.w3.org/2000/svg" xmlns:xlink="http://www.w3.org/1999/xlink" xmlns:sketch="http://www.bohemiancoding.com/sketch/ns">
    <!-- Generator: Sketch 3.4.3 (16618) - http://www.bohemiancoding.com/sketch -->
    <title>rainbow</title>
    <desc>Created with Sketch.</desc>
    <defs></defs>
    <g id="Page-1" stroke="none" stroke-width="1" fill="none" fill-rule="evenodd" sketch:type="MSPage">
        <g id="03" sketch:type="MSArtboardGroup" transform="translate(-425.000000, -192.000000)" fill="#000000">
            <path d="M515.493846,211.659231 C516.613846,213.576154 517.364103,215.674359 517.719487,217.892821 C518.143077,220.529487 517.986923,223.14641 517.25641,225.67359 L514.802821,234.159744 L523.181282,233.581795 C523.502564,233.560256 523.759231,233.549487 523.981795,233.549487 C530.432564,233.549487 535.678974,238.795897 535.678974,245.243077 C535.678974,251.693846 530.432564,256.942051 523.981795,256.942051 L439.944103,256.942051 C439.183077,256.942051 438.456154,256.744615 437.783077,256.356923 L437.115385,256.019487 C432.778974,254.192308 429.971795,249.96 429.971795,245.243077 C429.971795,238.795897 435.218205,233.549487 441.667179,233.549487 C442.421026,233.549487 443.185641,233.623077 443.941282,233.772051 L450.964615,235.152308 L450.944872,227.992564 C450.932308,223.661538 452.820513,219.581795 456.123077,216.797949 C458.745385,214.590256 462.071282,213.375128 465.488718,213.375128 C468.68359,213.376923 471.828205,214.437692 474.344615,216.36359 L480.456154,221.042821 L483.353077,213.908205 C484.70641,210.575128 487.009231,207.755385 490.012051,205.754103 C494.380769,202.833846 499.867692,201.961538 504.970513,203.433333 L505.169744,203.501538 C507.422308,204.18 509.479231,205.262308 511.281282,206.721538 C512.961282,208.083846 514.379231,209.744103 515.493846,211.659231 M541.840769,192 C531.227692,192 520.851538,194.945385 511.835897,200.520256 L511.394359,200.793077 L510.936667,200.545385 C509.452308,199.739487 507.908718,199.104103 506.352564,198.655385 C504.272308,198.055897 502.129231,197.750769 499.982564,197.750769 L499.977179,197.750769 C490.607949,197.750769 482.276154,203.359744 478.749231,212.039744 L478.305897,213.131026 L477.372564,212.414872 C473.994615,209.828462 469.776667,208.405128 465.495897,208.405128 C460.904615,208.405128 456.440769,210.034872 452.924615,212.99641 C448.491282,216.733333 445.958718,222.205897 445.978462,228.010513 L445.982051,229.105385 L444.906923,228.895385 C443.831795,228.681795 442.744103,228.575897 441.674359,228.575897 C432.481026,228.575897 425,236.053333 425,245.244872 C425,251.964872 428.998974,257.993846 435.184103,260.607179 C436.707949,261.481282 438.317949,261.915641 439.944103,261.915641 L523.98359,261.915641 C533.175128,261.915641 540.652564,254.438205 540.652564,245.246667 C540.652564,236.157436 533.255897,228.687179 524.164872,228.592051 L521.695128,228.565128 L523.604872,227 C528.738205,222.791026 535.214103,220.473846 541.840769,220.473846 C557.414872,220.473846 570.142308,232.905128 570.617949,248.367949 L574.816154,248.367949 C574.338718,230.589744 559.730256,216.275641 541.840769,216.275641 C535.625128,216.275641 529.558462,218.027436 524.299487,221.344359 L522.931795,222.207692 L522.924615,220.590513 C522.913846,218.470769 522.603333,216.349231 521.998462,214.283333 L521.793846,213.586923 L522.431026,213.242308 C528.363077,210.033077 535.074103,208.336923 541.840769,208.336923 C564.107949,208.336923 582.281026,226.213846 582.760256,248.367949 L586.956667,248.367949 C586.479231,223.896667 566.423333,204.140513 541.840769,204.140513 C534.558974,204.140513 527.309487,205.931795 520.878462,209.324103 L520.124615,209.720769 L519.688462,208.988462 C518.634872,207.216923 517.391026,205.628462 515.989231,204.266154 L515.124103,203.424359 L516.181282,202.837436 C524.003333,198.497436 532.877179,196.201795 541.840769,196.201795 L541.851538,196.201795 C555.996923,196.201795 569.311282,201.724615 579.342821,211.756154 C589.164359,221.575897 594.665641,234.545641 594.895385,248.362564 L599.09359,248.362564 C598.612564,217.201795 573.114615,192 541.840769,192" id="rainbow" sketch:type="MSShapeGroup"></path>
        </g>
    </g>
</svg>