<?xml version="1.0" encoding="UTF-8" standalone="no"?>
<svg width="195px" height="195px" viewBox="0 0 195 195" version="1.1" xmlns="http://www.w3.org/2000/svg" xmlns:xlink="http://www.w3.org/1999/xlink" xmlns:sketch="http://www.bohemiancoding.com/sketch/ns">
    <!-- Generator: Sketch 3.4.3 (16618) - http://www.bohemiancoding.com/sketch -->
    <title>Oval 1 + sad</title>
    <desc>Created with Sketch.</desc>
    <defs></defs>
    <g id="Page-1" stroke="none" stroke-width="1" fill="none" fill-rule="evenodd" sketch:type="MSPage">
        <g id="01" sketch:type="MSArtboardGroup" transform="translate(-672.000000, -320.000000)">
            <g id="answer" sketch:type="MSLayerGroup" transform="translate(157.000000, 320.000000)">
                <g id="Oval-1-+-sad" transform="translate(515.000000, 0.000000)" sketch:type="MSShapeGroup">
                    <path d="M97.5,195 C151.347763,195 195,151.347763 195,97.5 C195,43.6522369 151.347763,0 97.5,0 C43.6522369,0 0,43.6522369 0,97.5 C0,151.347763 43.6522369,195 97.5,195 Z" id="Oval-1" fill="#F1233D"></path>
                    <path d="M84.4228516,162.694336 C80.1617625,161.851233 76.0374548,160.609383 72.0498047,158.96875 C68.0621545,157.328117 64.2568541,155.288749 60.6337891,152.850586 C57.0107241,150.412423 53.6269688,147.621109 50.4824219,144.476562 C47.3378749,141.377589 44.5579548,138.005227 42.1425781,134.359375 C39.7272015,130.713523 37.6878338,126.908223 36.0244141,122.943359 C34.3609943,118.978496 33.1077516,114.854188 32.2646484,110.570312 C31.4215453,106.286437 31,101.934267 31,97.5136719 C31,93.0475037 31.4215453,88.6839406 32.2646484,84.4228516 C33.1077516,80.1617625 34.3609943,76.0374548 36.0244141,72.0498047 C37.6878338,68.0621545 39.7272015,64.2568541 42.1425781,60.6337891 C44.5579548,57.0107241 47.3378749,53.6269688 50.4824219,50.4824219 C53.6269688,47.3378749 57.0107241,44.5579548 60.6337891,42.1425781 C64.2568541,39.7272015 68.0621545,37.6878338 72.0498047,36.0244141 C76.0374548,34.3609943 80.1617625,33.1077516 84.4228516,32.2646484 C88.6839406,31.4215453 93.0475037,31 97.5136719,31 C101.934267,31 106.286437,31.4215453 110.570312,32.2646484 C114.854188,33.1077516 118.989889,34.3609943 122.977539,36.0244141 C126.965189,37.6878338 130.77049,39.7272015 134.393555,42.1425781 C138.01662,44.5579548 141.400375,47.3378749 144.544922,50.4824219 C147.689469,53.6269688 150.469389,57.0107241 152.884766,60.6337891 C155.300142,64.2568541 157.328117,68.0621545 158.96875,72.0498047 C160.609383,76.0374548 161.862626,80.1617625 162.728516,84.4228516 C163.594405,88.6839406 164.027344,93.0475037 164.027344,97.5136719 C164.027344,101.934267 163.594405,106.286437 162.728516,110.570312 C161.862626,114.854188 160.609383,118.978496 158.96875,122.943359 C157.328117,126.908223 155.300142,130.713523 152.884766,134.359375 C150.469389,138.005227 147.689469,141.377589 144.544922,144.476562 C141.400375,147.621109 138.01662,150.412423 134.393555,152.850586 C130.77049,155.288749 126.965189,157.328117 122.977539,158.96875 C118.989889,160.609383 114.854188,161.851233 110.570312,162.694336 C106.286437,163.537439 101.934267,163.958984 97.5136719,163.958984 C93.0475037,163.958984 88.6839406,163.537439 84.4228516,162.694336 Z M76.5273438,85.0136719 C73.6106625,85.0136719 71.1269634,83.9882915 69.0761719,81.9375 C67.0253804,79.8867085 66,77.4030094 66,74.4863281 C66,71.5696469 67.0253804,69.0859478 69.0761719,67.0351562 C71.1269634,64.9843647 73.6106625,63.9589844 76.5273438,63.9589844 C79.3984519,63.9589844 81.8593647,64.9843647 83.9101562,67.0351562 C85.9609478,69.0859478 86.9863281,71.5696469 86.9863281,74.4863281 C86.9863281,77.4030094 85.9609478,79.8867085 83.9101562,81.9375 C81.8593647,83.9882915 79.3984519,85.0136719 76.5273438,85.0136719 L76.5273438,85.0136719 Z M118.5,85.0136719 C115.583319,85.0136719 113.09962,83.9882915 111.048828,81.9375 C108.998037,79.8867085 107.972656,77.4030094 107.972656,74.4863281 C107.972656,71.5696469 108.998037,69.0859478 111.048828,67.0351562 C113.09962,64.9843647 115.583319,63.9589844 118.5,63.9589844 C121.416681,63.9589844 123.90038,64.9843647 125.951172,67.0351562 C128.001963,69.0859478 129.027344,71.5696469 129.027344,74.4863281 C129.027344,77.4030094 128.001963,79.8867085 125.951172,81.9375 C123.90038,83.9882915 121.416681,85.0136719 118.5,85.0136719 L118.5,85.0136719 Z M69.4863281,125.958984 C69.121743,125.958984 68.7571633,125.902019 68.3925781,125.788086 C68.027993,125.674153 67.6861995,125.503256 67.3671875,125.275391 C66.592444,124.68294 66.1367194,123.908208 66,122.951172 C65.8632806,121.994136 66.0911429,121.128259 66.6835937,120.353516 C68.4609464,118.029285 70.4775278,115.921559 72.7333984,114.030273 C74.9892691,112.138988 77.4160026,110.532559 80.0136719,109.210938 C82.7480605,107.79817 85.5735531,106.73861 88.4902344,106.032227 C91.4069156,105.325843 94.414698,104.972656 97.5136719,104.972656 C100.567073,104.972656 103.563462,105.325843 106.50293,106.032227 C109.442398,106.73861 112.279283,107.79817 115.013672,109.210938 C117.611341,110.532559 120.038075,112.138988 122.293945,114.030273 C124.549816,115.921559 126.543611,118.029285 128.275391,120.353516 C128.867842,121.128259 129.095704,121.994136 128.958984,122.951172 C128.822265,123.908208 128.36654,124.68294 127.591797,125.275391 C126.817053,125.867842 125.951177,126.095704 124.994141,125.958984 C124.037105,125.822265 123.285159,125.36654 122.738281,124.591797 C121.234367,122.586579 119.536793,120.797859 117.645508,119.225586 C115.754222,117.653312 113.737641,116.331711 111.595703,115.260742 C109.453765,114.189773 107.197929,113.380862 104.828125,112.833984 C102.458321,112.287107 100.020195,112.013672 97.5136719,112.013672 C95.0071489,112.013672 92.5690223,112.287107 90.1992187,112.833984 C87.8294152,113.380862 85.5621853,114.189773 83.3974609,115.260742 C81.2327366,116.331711 79.2161552,117.653312 77.3476562,119.225586 C75.4791573,120.797859 73.7929763,122.586579 72.2890625,124.591797 C71.9700505,125.047528 71.5598983,125.389322 71.0585937,125.617188 C70.5572892,125.845053 70.0332059,125.958984 69.4863281,125.958984 L69.4863281,125.958984 Z" id="sad" fill="#FFFFFF"></path>
                </g>
            </g>
        </g>
    </g>
</svg>